<?xml version="1.0" encoding="iso-8859-1"?>
<!-- Generator: Adobe Illustrator 19.0.0, SVG Export Plug-In . SVG Version: 6.00 Build 0)  -->
<svg version="1.1" id="Capa_1" xmlns="http://www.w3.org/2000/svg" xmlns:xlink="http://www.w3.org/1999/xlink" x="0px" y="0px"
	 viewBox="0 0 512.001 512.001" style="enable-background:new 0 0 512.001 512.001;" xml:space="preserve">
<g>
	<g>
		<path d="M261.74,192.906c-5.603-2.321-12.057-1.038-16.347,3.252l-30,30c-5.858,5.858-5.858,15.355,0,21.213
			c5.857,5.858,15.355,5.858,21.213,0l4.394-4.393v53.786c0,8.283,6.716,14.999,15,14.999c8.284,0,15-6.716,15-15v-89.999
			C271,200.697,267.346,195.227,261.74,192.906z"/>
	</g>
</g>
<g>
	<g>
		<path d="M500.879,240.924c-14.045-3.763-28.538-3.372-42.065,0.943c29.82-15.834,46.454-50.837,37.142-85.591l-7.765-28.978
			c-2.145-8.002-10.374-12.752-18.371-10.606c-14.044,3.763-26.401,11.348-35.958,21.849c17.948-28.684,14.763-67.305-10.629-92.695
			l-21.213-21.213c-2.813-2.813-6.628-4.394-10.606-4.394c-3.978,0-7.794,1.581-10.606,4.394
			c-14.166,14.166-21.968,33-21.968,53.032c0,3.592,0.261,7.144,0.754,10.64c-22.566-3.197-46.319,3.86-63.639,21.18
			c-5.853,5.853-5.858,15.356,0,21.214l21.214,21.213c7.888,7.888,17.115,13.628,26.952,17.261l6.947,25.928
			c2.888,10.776,8.005,20.368,14.709,28.433l-6.945,25.918c-2.887,10.775-3.244,21.638-1.471,31.972l-18.98,18.979
			c-23.392,23.391-27.785,57.827-14.745,85.228c-7.245,3.397-14.744,6.334-22.401,8.716c-16.591,5.16-32.033,11.463-46.467,18.952
			c-14.749-7.293-30.711-13.624-47.841-18.952c-6.624-2.06-12.99-4.561-19.177-7.506c13.824-27.729,9.533-62.77-14.135-86.437
			l-18.98-18.979c1.773-10.335,1.416-21.198-1.471-31.972l-6.945-25.919c6.704-8.064,11.822-17.656,14.71-28.432l6.947-25.928
			c9.837-3.633,19.064-9.373,26.952-17.261l21.213-21.213c5.858-5.858,5.858-15.355,0-21.213
			c-14.165-14.166-32.998-21.967-53.031-21.967c-3.58,0-7.119,0.26-10.603,0.75c0.49-3.484,0.75-7.023,0.75-10.603
			c0-20.033-7.802-38.866-21.968-53.032c-5.853-5.854-15.357-5.857-21.213,0L88.766,45.847
			c-25.386,25.385-28.58,64.005-10.629,92.695c-9.558-10.501-21.914-18.086-35.958-21.849c-7.991-2.144-16.227,2.604-18.371,10.606
			l-7.765,28.977c-9.291,34.676,7.252,69.719,37.14,85.59c-13.527-4.314-28.018-4.705-42.063-0.941
			c-8.002,2.144-12.75,10.369-10.606,18.371l7.765,28.978c9.227,34.432,41.074,56.813,75.244,55.539
			c-13.635,2.927-26.61,9.656-37.182,20.229c-5.853,5.853-5.858,15.356,0,21.214l21.214,21.213
			c28.081,28.082,72.145,28.925,101.26,4.389c9.391,4.949,19.1,8.994,29.206,12.137c8.997,2.798,17.598,5.906,25.841,9.282
			c-10.882,7.833-21.117,16.532-30.753,26.167l-7.714,7.713c-5.857,5.858-5.856,15.356,0.001,21.213
			c5.856,5.856,15.353,5.859,21.214,0l7.712-7.713c12.564-12.564,26.006-23.189,40.761-32.198
			c16.239,9.336,30.484,20.083,42.598,32.198l7.712,7.713c5.86,5.859,15.358,5.857,21.214,0c5.857-5.857,5.858-15.355,0.001-21.213
			l-7.714-7.714c-9.743-9.742-20.644-18.673-32.607-26.808c7.606-3.166,15.531-6.05,23.862-8.641
			c10.999-3.421,21.74-7.824,32-13.034c29.441,25.734,74.161,24.648,102.299-3.491l21.214-21.213
			c2.813-2.813,4.394-6.628,4.394-10.607s-1.58-7.793-4.394-10.607c-10.573-10.573-23.548-17.302-37.182-20.229
			c34.232,1.278,66.035-21.175,75.243-55.539l7.765-28.978C513.629,251.293,508.881,243.068,500.879,240.924z M45.021,164.041
			l3.223-12.027c14.981,10.264,23.156,29.489,17.989,48.768l-3.223,12.027C48.035,202.55,39.853,183.326,45.021,164.041z
			 M37.257,280.508l-3.223-12.027c18.091,1.399,34.794,13.946,39.963,33.24l3.217,12.006
			C58.749,312.264,42.317,299.395,37.257,280.508z M135.051,127.261c13.627-10.824,32.123-12.61,47.355-5.352l-8.789,8.79
			c-13.258,13.256-32.794,16.49-49.123,9.713C127.77,135.877,131.291,131.488,135.051,127.261z M109.978,67.06l8.805-8.804
			c7.843,16.384,5.309,37.115-8.805,51.229l-8.805,8.804C93.331,101.907,95.865,81.174,109.978,67.06z M96.718,203.948
			c6.319-16.356,21.526-27.281,38.451-28.62l-3.217,12.006c-4.852,18.107-20.151,30.673-37.676,32.971
			C94.819,214.789,95.637,209.332,96.718,203.948z M107.996,304.645c-2.249-4.979-4.247-10.066-5.985-15.249
			c-2.787-17.385,4.924-34.533,18.961-44.188l3.217,12.006C129.047,275.342,122.059,293.899,107.996,304.645z M88.766,385.253
			l-8.79-8.789c16.726-7.968,37.389-5.038,51.216,8.789l8.804,8.805C123.613,401.9,102.877,399.365,88.766,385.253z M161.969,371.1
			c-4.278-3.229-8.507-6.734-12.708-10.55c-6.5-7.991-10.038-17.888-10.038-28.331c0-6.83,1.512-13.427,4.376-19.411l8.805,8.804
			C165.76,334.97,168.946,354.701,161.969,371.1z M417.722,220.306c-17.524-2.3-32.825-14.866-37.676-32.971l-3.218-12.006
			c16.925,1.34,32.133,12.265,38.452,28.62C416.361,209.332,417.179,214.79,417.722,220.306z M409.989,289.397
			c-1.738,5.183-3.737,10.271-5.986,15.249c-14.063-10.747-21.05-29.303-16.193-47.431l3.217-12.006
			C405.065,254.863,412.775,272.012,409.989,289.397z M393.217,58.256l8.805,8.805c14.111,14.111,16.649,34.843,8.805,51.229
			l-8.805-8.805C387.91,95.375,385.373,74.642,393.217,58.256z M338.383,130.698l-8.805-8.804
			c14.905-7.135,33.473-5.704,47.385,5.383c3.755,4.222,7.271,8.605,10.543,13.134C371.18,147.188,351.639,143.956,338.383,130.698z
			 M349.784,370.495c-6.647-16.279-3.382-35.688,9.811-48.881l8.805-8.804c7.047,14.723,5.801,33.223-5.263,47.231
			C358.935,363.721,354.462,367.206,349.784,370.495z M432.023,376.463l-8.79,8.79c-14.105,14.105-34.838,16.651-51.229,8.804
			l8.804-8.804C394.636,371.424,415.299,368.494,432.023,376.463z M463.756,152.015l3.223,12.027
			c5.167,19.283-3.012,38.507-17.989,48.769c-1.141-4.258-0.624-2.33-3.223-12.028C440.6,181.503,448.775,162.279,463.756,152.015z
			 M474.742,280.508c-5.061,18.889-21.49,31.758-39.957,33.218l3.217-12.006c5.163-19.273,21.852-31.842,39.963-33.24
			L474.742,280.508z"/>
	</g>
</g>
<g>
</g>
<g>
</g>
<g>
</g>
<g>
</g>
<g>
</g>
<g>
</g>
<g>
</g>
<g>
</g>
<g>
</g>
<g>
</g>
<g>
</g>
<g>
</g>
<g>
</g>
<g>
</g>
<g>
</g>
</svg>
