<?xml version="1.0" encoding="UTF-8"?>
<!DOCTYPE svg PUBLIC "-//W3C//DTD SVG 1.1//EN" "http://www.w3.org/Graphics/SVG/1.1/DTD/svg11.dtd">
<svg width="256mm" height="66mm" viewBox="0 0 25600 6600" version="1.1" xmlns="http://www.w3.org/2000/svg" xmlns:xlink="http://www.w3.org/1999/xlink" stroke-width="28.222" stroke-linejoin="round" xml:space="preserve">
 <path fill="rgb(255,255,255)" stroke="none" d="M 12824,6561 L 0,6561 0,0 25648,0 25648,6561 12824,6561 Z"/>
 <path fill="none" stroke="rgb(179,179,179)" stroke-linejoin="round" d="M 8865,5386 L 1768,5386 1768,529 15962,529 15962,5386 8865,5386 Z"/>
 <path fill="none" stroke="rgb(179,179,179)" stroke-linejoin="round" d="M 15962,5385 L 1768,5385"/>
 <path fill="none" stroke="rgb(179,179,179)" stroke-linejoin="round" d="M 15962,4170 L 1768,4170"/>
 <path fill="none" stroke="rgb(179,179,179)" stroke-linejoin="round" d="M 15962,2957 L 1768,2957"/>
 <path fill="none" stroke="rgb(179,179,179)" stroke-linejoin="round" d="M 15962,1742 L 1768,1742"/>
 <path fill="none" stroke="rgb(179,179,179)" stroke-linejoin="round" d="M 15962,528 L 1768,528"/>
 <path fill="none" stroke="rgb(179,179,179)" stroke-linejoin="round" d="M 1768,5535 L 1768,5385"/>
 <path fill="none" stroke="rgb(179,179,179)" stroke-linejoin="round" d="M 1768,5535 L 1768,5385"/>
 <path fill="none" stroke="rgb(179,179,179)" stroke-linejoin="round" d="M 5316,5535 L 5316,5385"/>
 <path fill="none" stroke="rgb(179,179,179)" stroke-linejoin="round" d="M 5316,5535 L 5316,5385"/>
 <path fill="none" stroke="rgb(179,179,179)" stroke-linejoin="round" d="M 8865,5535 L 8865,5385"/>
 <path fill="none" stroke="rgb(179,179,179)" stroke-linejoin="round" d="M 8865,5535 L 8865,5385"/>
 <path fill="none" stroke="rgb(179,179,179)" stroke-linejoin="round" d="M 12414,5535 L 12414,5385"/>
 <path fill="none" stroke="rgb(179,179,179)" stroke-linejoin="round" d="M 12414,5535 L 12414,5385"/>
 <path fill="none" stroke="rgb(179,179,179)" stroke-linejoin="round" d="M 15962,5535 L 15962,5385"/>
 <path fill="none" stroke="rgb(179,179,179)" stroke-linejoin="round" d="M 15962,5535 L 15962,5385"/>
 <path fill="none" stroke="rgb(179,179,179)" stroke-linejoin="round" d="M 1768,5385 L 15962,5385"/>
 <path fill="none" stroke="rgb(179,179,179)" stroke-linejoin="round" d="M 1618,5385 L 1768,5385"/>
 <path fill="none" stroke="rgb(179,179,179)" stroke-linejoin="round" d="M 1618,5385 L 1768,5385"/>
 <path fill="none" stroke="rgb(179,179,179)" stroke-linejoin="round" d="M 1618,4170 L 1768,4170"/>
 <path fill="none" stroke="rgb(179,179,179)" stroke-linejoin="round" d="M 1618,4170 L 1768,4170"/>
 <path fill="none" stroke="rgb(179,179,179)" stroke-linejoin="round" d="M 1618,2957 L 1768,2957"/>
 <path fill="none" stroke="rgb(179,179,179)" stroke-linejoin="round" d="M 1618,2957 L 1768,2957"/>
 <path fill="none" stroke="rgb(179,179,179)" stroke-linejoin="round" d="M 1618,1742 L 1768,1742"/>
 <path fill="none" stroke="rgb(179,179,179)" stroke-linejoin="round" d="M 1618,1742 L 1768,1742"/>
 <path fill="none" stroke="rgb(179,179,179)" stroke-linejoin="round" d="M 1618,528 L 1768,528"/>
 <path fill="none" stroke="rgb(179,179,179)" stroke-linejoin="round" d="M 1618,528 L 1768,528"/>
 <path fill="none" stroke="rgb(179,179,179)" stroke-linejoin="round" d="M 1768,5385 L 1768,528"/>
 <path fill="none" stroke="rgb(221,102,102)" stroke-width="80" stroke-linejoin="round" d="M 1768,3078 L 5316,1499 8865,1742 12414,1256 15962,1183"/>
 <path fill="rgb(221,102,102)" stroke="none" d="M 1643,2953 L 1643,3203 1893,3203 1893,2953 1643,2953 Z"/>
 <path fill="none" stroke="rgb(221,102,102)" stroke-linejoin="round" d="M 1643,2953 L 1643,3203 1893,3203 1893,2953 1643,2953 Z"/>
 <path fill="rgb(221,102,102)" stroke="none" d="M 5191,1374 L 5191,1624 5441,1624 5441,1374 5191,1374 Z"/>
 <path fill="none" stroke="rgb(221,102,102)" stroke-linejoin="round" d="M 5191,1374 L 5191,1624 5441,1624 5441,1374 5191,1374 Z"/>
 <path fill="rgb(221,102,102)" stroke="none" d="M 8740,1617 L 8740,1867 8990,1867 8990,1617 8740,1617 Z"/>
 <path fill="none" stroke="rgb(221,102,102)" stroke-linejoin="round" d="M 8740,1617 L 8740,1867 8990,1867 8990,1617 8740,1617 Z"/>
 <path fill="rgb(221,102,102)" stroke="none" d="M 12289,1131 L 12289,1381 12539,1381 12539,1131 12289,1131 Z"/>
 <path fill="none" stroke="rgb(221,102,102)" stroke-linejoin="round" d="M 12289,1131 L 12289,1381 12539,1381 12539,1131 12289,1131 Z"/>
 <path fill="rgb(221,102,102)" stroke="none" d="M 15837,1058 L 15837,1308 16087,1308 16087,1058 15837,1058 Z"/>
 <path fill="none" stroke="rgb(221,102,102)" stroke-linejoin="round" d="M 15837,1058 L 15837,1308 16087,1308 16087,1058 15837,1058 Z"/>
 <path fill="none" stroke="rgb(102,102,187)" stroke-width="80" stroke-linejoin="round" d="M 1768,3417 L 5316,3368 8865,3248 12414,3248 15962,3054"/>
 <path fill="rgb(102,102,187)" stroke="none" d="M 1893,3417 L 1892,3412 1892,3406 1891,3401 1891,3395 1890,3390 1888,3385 1887,3379 1885,3374 1883,3369 1881,3364 1878,3359 1876,3355 1873,3350 1870,3345 1867,3341 1863,3337 1860,3333 1856,3329 1852,3325 1848,3321 1844,3318 1839,3315 1835,3312 1830,3309 1825,3306 1820,3304 1815,3302 1810,3300 1805,3298 1800,3296 1795,3295 1789,3294 1784,3293 1778,3292 1773,3292 1768,3292 1762,3292 1757,3292 1751,3293 1746,3294 1740,3295 1735,3296 1730,3298 1725,3300 1720,3302 1715,3304 1710,3306 1705,3309 1700,3312 1696,3315 1691,3318 1687,3321 1683,3325 1679,3329 1675,3333 1672,3337 1668,3341 1665,3345 1662,3350 1659,3355 1657,3359 1654,3364 1652,3369 1650,3374 1648,3379 1647,3385 1645,3390 1644,3395 1644,3401 1643,3406 1643,3412 1643,3417 1643,3422 1643,3428 1644,3433 1644,3439 1645,3444 1647,3449 1648,3455 1650,3460 1652,3465 1654,3470 1657,3475 1659,3480 1662,3484 1665,3489 1668,3493 1672,3497 1675,3501 1679,3505 1683,3509 1687,3513 1691,3516 1696,3519 1700,3522 1705,3525 1710,3528 1715,3530 1720,3532 1725,3534 1730,3536 1735,3538 1740,3539 1746,3540 1751,3541 1757,3542 1762,3542 1768,3542 1773,3542 1778,3542 1784,3541 1789,3540 1795,3539 1800,3538 1805,3536 1810,3534 1815,3532 1820,3530 1825,3528 1830,3525 1835,3522 1839,3519 1844,3516 1848,3513 1852,3509 1856,3505 1860,3501 1863,3497 1867,3493 1870,3489 1873,3484 1876,3480 1878,3475 1881,3470 1883,3465 1885,3460 1887,3455 1888,3449 1890,3444 1891,3439 1891,3433 1892,3428 1892,3422 1893,3417 Z"/>
 <path fill="none" stroke="rgb(102,102,187)" stroke-linejoin="round" d="M 1893,3417 L 1892,3412 1892,3406 1891,3401 1891,3395 1890,3390 1888,3385 1887,3379 1885,3374 1883,3369 1881,3364 1878,3359 1876,3355 1873,3350 1870,3345 1867,3341 1863,3337 1860,3333 1856,3329 1852,3325 1848,3321 1844,3318 1839,3315 1835,3312 1830,3309 1825,3306 1820,3304 1815,3302 1810,3300 1805,3298 1800,3296 1795,3295 1789,3294 1784,3293 1778,3292 1773,3292 1768,3292 1762,3292 1757,3292 1751,3293 1746,3294 1740,3295 1735,3296 1730,3298 1725,3300 1720,3302 1715,3304 1710,3306 1705,3309 1700,3312 1696,3315 1691,3318 1687,3321 1683,3325 1679,3329 1675,3333 1672,3337 1668,3341 1665,3345 1662,3350 1659,3355 1657,3359 1654,3364 1652,3369 1650,3374 1648,3379 1647,3385 1645,3390 1644,3395 1644,3401 1643,3406 1643,3412 1643,3417 1643,3422 1643,3428 1644,3433 1644,3439 1645,3444 1647,3449 1648,3455 1650,3460 1652,3465 1654,3470 1657,3475 1659,3480 1662,3484 1665,3489 1668,3493 1672,3497 1675,3501 1679,3505 1683,3509 1687,3513 1691,3516 1696,3519 1700,3522 1705,3525 1710,3528 1715,3530 1720,3532 1725,3534 1730,3536 1735,3538 1740,3539 1746,3540 1751,3541 1757,3542 1762,3542 1768,3542 1773,3542 1778,3542 1784,3541 1789,3540 1795,3539 1800,3538 1805,3536 1810,3534 1815,3532 1820,3530 1825,3528 1830,3525 1835,3522 1839,3519 1844,3516 1848,3513 1852,3509 1856,3505 1860,3501 1863,3497 1867,3493 1870,3489 1873,3484 1876,3480 1878,3475 1881,3470 1883,3465 1885,3460 1887,3455 1888,3449 1890,3444 1891,3439 1891,3433 1892,3428 1892,3422 1893,3417 Z"/>
 <path fill="rgb(102,102,187)" stroke="none" d="M 5441,3368 L 5441,3363 5441,3358 5440,3352 5439,3347 5438,3341 5437,3336 5435,3331 5434,3326 5432,3321 5430,3316 5427,3311 5425,3306 5422,3301 5419,3297 5415,3292 5412,3288 5408,3284 5405,3281 5401,3277 5397,3274 5392,3270 5388,3267 5383,3264 5379,3261 5374,3259 5369,3256 5364,3254 5359,3252 5354,3250 5349,3249 5343,3247 5338,3246 5333,3245 5327,3245 5322,3245 5316,3244 5311,3245 5305,3245 5300,3245 5295,3246 5289,3247 5284,3249 5279,3250 5273,3252 5268,3254 5263,3256 5259,3259 5254,3261 5249,3264 5245,3267 5240,3270 5236,3274 5232,3277 5228,3281 5224,3284 5220,3288 5217,3292 5214,3297 5211,3301 5208,3306 5205,3311 5203,3316 5201,3321 5199,3326 5197,3331 5196,3336 5194,3341 5193,3347 5192,3352 5192,3358 5191,3363 5191,3368 5191,3374 5192,3379 5192,3385 5193,3390 5194,3395 5196,3401 5197,3406 5199,3411 5201,3416 5203,3421 5205,3426 5208,3431 5211,3436 5214,3440 5217,3445 5220,3449 5224,3453 5228,3457 5232,3461 5236,3464 5240,3468 5245,3471 5249,3474 5254,3477 5259,3479 5263,3482 5268,3484 5273,3486 5279,3488 5284,3489 5289,3490 5295,3492 5300,3492 5305,3493 5311,3493 5316,3493 5322,3493 5327,3493 5333,3492 5338,3492 5343,3490 5349,3489 5354,3488 5359,3486 5364,3484 5369,3482 5374,3479 5379,3477 5383,3474 5388,3471 5392,3468 5397,3464 5401,3461 5405,3457 5408,3453 5412,3449 5415,3445 5419,3440 5422,3436 5425,3431 5427,3426 5430,3421 5432,3416 5434,3411 5435,3406 5437,3401 5438,3395 5439,3390 5440,3385 5441,3379 5441,3374 5441,3368 Z"/>
 <path fill="none" stroke="rgb(102,102,187)" stroke-linejoin="round" d="M 5441,3368 L 5441,3363 5441,3358 5440,3352 5439,3347 5438,3341 5437,3336 5435,3331 5434,3326 5432,3321 5430,3316 5427,3311 5425,3306 5422,3301 5419,3297 5415,3292 5412,3288 5408,3284 5405,3281 5401,3277 5397,3274 5392,3270 5388,3267 5383,3264 5379,3261 5374,3259 5369,3256 5364,3254 5359,3252 5354,3250 5349,3249 5343,3247 5338,3246 5333,3245 5327,3245 5322,3245 5316,3244 5311,3245 5305,3245 5300,3245 5295,3246 5289,3247 5284,3249 5279,3250 5273,3252 5268,3254 5263,3256 5259,3259 5254,3261 5249,3264 5245,3267 5240,3270 5236,3274 5232,3277 5228,3281 5224,3284 5220,3288 5217,3292 5214,3297 5211,3301 5208,3306 5205,3311 5203,3316 5201,3321 5199,3326 5197,3331 5196,3336 5194,3341 5193,3347 5192,3352 5192,3358 5191,3363 5191,3368 5191,3374 5192,3379 5192,3385 5193,3390 5194,3395 5196,3401 5197,3406 5199,3411 5201,3416 5203,3421 5205,3426 5208,3431 5211,3436 5214,3440 5217,3445 5220,3449 5224,3453 5228,3457 5232,3461 5236,3464 5240,3468 5245,3471 5249,3474 5254,3477 5259,3479 5263,3482 5268,3484 5273,3486 5279,3488 5284,3489 5289,3490 5295,3492 5300,3492 5305,3493 5311,3493 5316,3493 5322,3493 5327,3493 5333,3492 5338,3492 5343,3490 5349,3489 5354,3488 5359,3486 5364,3484 5369,3482 5374,3479 5379,3477 5383,3474 5388,3471 5392,3468 5397,3464 5401,3461 5405,3457 5408,3453 5412,3449 5415,3445 5419,3440 5422,3436 5425,3431 5427,3426 5430,3421 5432,3416 5434,3411 5435,3406 5437,3401 5438,3395 5439,3390 5440,3385 5441,3379 5441,3374 5441,3368 Z"/>
 <path fill="rgb(102,102,187)" stroke="none" d="M 8990,3248 L 8990,3243 8990,3237 8989,3232 8988,3226 8987,3221 8986,3216 8984,3210 8982,3205 8980,3200 8978,3195 8976,3190 8973,3185 8970,3181 8967,3176 8964,3172 8961,3168 8957,3164 8953,3160 8949,3156 8945,3152 8941,3149 8937,3146 8932,3143 8928,3140 8923,3137 8918,3135 8913,3132 8908,3131 8903,3129 8897,3127 8892,3126 8887,3125 8881,3124 8876,3123 8870,3123 8865,3123 8860,3123 8854,3123 8849,3124 8843,3125 8838,3126 8833,3127 8827,3129 8822,3131 8817,3132 8812,3135 8807,3137 8803,3140 8798,3143 8793,3146 8789,3149 8785,3152 8781,3156 8777,3160 8773,3164 8769,3168 8766,3172 8763,3176 8760,3181 8757,3185 8754,3190 8752,3195 8750,3200 8748,3205 8746,3210 8744,3216 8743,3221 8742,3226 8741,3232 8740,3237 8740,3243 8740,3248 8740,3253 8740,3259 8741,3264 8742,3270 8743,3275 8744,3280 8746,3285 8748,3290 8750,3295 8752,3300 8754,3305 8757,3309 8760,3314 8763,3319 8766,3323 8769,3327 8773,3331 8777,3335 8781,3339 8785,3343 8789,3346 8793,3349 8798,3352 8803,3355 8807,3358 8812,3360 8817,3362 8822,3364 8827,3366 8833,3368 8838,3369 8843,3370 8849,3371 8854,3372 8860,3372 8865,3372 8870,3372 8876,3372 8881,3371 8887,3370 8892,3369 8897,3368 8903,3366 8908,3364 8913,3362 8918,3360 8923,3358 8928,3355 8932,3352 8937,3349 8941,3346 8945,3343 8949,3339 8953,3335 8957,3331 8961,3327 8964,3323 8967,3319 8970,3314 8973,3309 8976,3305 8978,3300 8980,3295 8982,3290 8984,3285 8986,3280 8987,3275 8988,3270 8989,3264 8990,3259 8990,3253 8990,3248 Z"/>
 <path fill="none" stroke="rgb(102,102,187)" stroke-linejoin="round" d="M 8990,3248 L 8990,3243 8990,3237 8989,3232 8988,3226 8987,3221 8986,3216 8984,3210 8982,3205 8980,3200 8978,3195 8976,3190 8973,3185 8970,3181 8967,3176 8964,3172 8961,3168 8957,3164 8953,3160 8949,3156 8945,3152 8941,3149 8937,3146 8932,3143 8928,3140 8923,3137 8918,3135 8913,3132 8908,3131 8903,3129 8897,3127 8892,3126 8887,3125 8881,3124 8876,3123 8870,3123 8865,3123 8860,3123 8854,3123 8849,3124 8843,3125 8838,3126 8833,3127 8827,3129 8822,3131 8817,3132 8812,3135 8807,3137 8803,3140 8798,3143 8793,3146 8789,3149 8785,3152 8781,3156 8777,3160 8773,3164 8769,3168 8766,3172 8763,3176 8760,3181 8757,3185 8754,3190 8752,3195 8750,3200 8748,3205 8746,3210 8744,3216 8743,3221 8742,3226 8741,3232 8740,3237 8740,3243 8740,3248 8740,3253 8740,3259 8741,3264 8742,3270 8743,3275 8744,3280 8746,3285 8748,3290 8750,3295 8752,3300 8754,3305 8757,3309 8760,3314 8763,3319 8766,3323 8769,3327 8773,3331 8777,3335 8781,3339 8785,3343 8789,3346 8793,3349 8798,3352 8803,3355 8807,3358 8812,3360 8817,3362 8822,3364 8827,3366 8833,3368 8838,3369 8843,3370 8849,3371 8854,3372 8860,3372 8865,3372 8870,3372 8876,3372 8881,3371 8887,3370 8892,3369 8897,3368 8903,3366 8908,3364 8913,3362 8918,3360 8923,3358 8928,3355 8932,3352 8937,3349 8941,3346 8945,3343 8949,3339 8953,3335 8957,3331 8961,3327 8964,3323 8967,3319 8970,3314 8973,3309 8976,3305 8978,3300 8980,3295 8982,3290 8984,3285 8986,3280 8987,3275 8988,3270 8989,3264 8990,3259 8990,3253 8990,3248 Z"/>
 <path fill="rgb(102,102,187)" stroke="none" d="M 12539,3248 L 12539,3243 12538,3237 12538,3232 12537,3226 12536,3221 12534,3216 12533,3210 12531,3205 12529,3200 12527,3195 12525,3190 12522,3185 12519,3181 12516,3176 12513,3172 12510,3168 12506,3164 12502,3160 12498,3156 12494,3152 12490,3149 12485,3146 12481,3143 12476,3140 12471,3137 12467,3135 12462,3132 12457,3131 12451,3129 12446,3127 12441,3126 12435,3125 12430,3124 12425,3123 12419,3123 12414,3123 12408,3123 12403,3123 12397,3124 12392,3125 12387,3126 12381,3127 12376,3129 12371,3131 12366,3132 12361,3135 12356,3137 12351,3140 12347,3143 12342,3146 12338,3149 12333,3152 12329,3156 12325,3160 12322,3164 12318,3168 12315,3172 12311,3176 12308,3181 12305,3185 12303,3190 12300,3195 12298,3200 12296,3205 12295,3210 12293,3216 12292,3221 12291,3226 12290,3232 12289,3237 12289,3243 12289,3248 12289,3253 12289,3259 12290,3264 12291,3270 12292,3275 12293,3280 12295,3285 12296,3290 12298,3295 12300,3300 12303,3305 12305,3309 12308,3314 12311,3319 12315,3323 12318,3327 12322,3331 12325,3335 12329,3339 12333,3343 12338,3346 12342,3349 12347,3352 12351,3355 12356,3358 12361,3360 12366,3362 12371,3364 12376,3366 12381,3368 12387,3369 12392,3370 12397,3371 12403,3372 12408,3372 12414,3372 12419,3372 12425,3372 12430,3371 12435,3370 12441,3369 12446,3368 12451,3366 12457,3364 12462,3362 12467,3360 12471,3358 12476,3355 12481,3352 12485,3349 12490,3346 12494,3343 12498,3339 12502,3335 12506,3331 12510,3327 12513,3323 12516,3319 12519,3314 12522,3309 12525,3305 12527,3300 12529,3295 12531,3290 12533,3285 12534,3280 12536,3275 12537,3270 12538,3264 12538,3259 12539,3253 12539,3248 Z"/>
 <path fill="none" stroke="rgb(102,102,187)" stroke-linejoin="round" d="M 12539,3248 L 12539,3243 12538,3237 12538,3232 12537,3226 12536,3221 12534,3216 12533,3210 12531,3205 12529,3200 12527,3195 12525,3190 12522,3185 12519,3181 12516,3176 12513,3172 12510,3168 12506,3164 12502,3160 12498,3156 12494,3152 12490,3149 12485,3146 12481,3143 12476,3140 12471,3137 12467,3135 12462,3132 12457,3131 12451,3129 12446,3127 12441,3126 12435,3125 12430,3124 12425,3123 12419,3123 12414,3123 12408,3123 12403,3123 12397,3124 12392,3125 12387,3126 12381,3127 12376,3129 12371,3131 12366,3132 12361,3135 12356,3137 12351,3140 12347,3143 12342,3146 12338,3149 12333,3152 12329,3156 12325,3160 12322,3164 12318,3168 12315,3172 12311,3176 12308,3181 12305,3185 12303,3190 12300,3195 12298,3200 12296,3205 12295,3210 12293,3216 12292,3221 12291,3226 12290,3232 12289,3237 12289,3243 12289,3248 12289,3253 12289,3259 12290,3264 12291,3270 12292,3275 12293,3280 12295,3285 12296,3290 12298,3295 12300,3300 12303,3305 12305,3309 12308,3314 12311,3319 12315,3323 12318,3327 12322,3331 12325,3335 12329,3339 12333,3343 12338,3346 12342,3349 12347,3352 12351,3355 12356,3358 12361,3360 12366,3362 12371,3364 12376,3366 12381,3368 12387,3369 12392,3370 12397,3371 12403,3372 12408,3372 12414,3372 12419,3372 12425,3372 12430,3371 12435,3370 12441,3369 12446,3368 12451,3366 12457,3364 12462,3362 12467,3360 12471,3358 12476,3355 12481,3352 12485,3349 12490,3346 12494,3343 12498,3339 12502,3335 12506,3331 12510,3327 12513,3323 12516,3319 12519,3314 12522,3309 12525,3305 12527,3300 12529,3295 12531,3290 12533,3285 12534,3280 12536,3275 12537,3270 12538,3264 12538,3259 12539,3253 12539,3248 Z"/>
 <path fill="rgb(102,102,187)" stroke="none" d="M 16087,3054 L 16086,3048 16086,3043 16085,3037 16085,3032 16084,3027 16082,3021 16081,3016 16079,3011 16077,3006 16075,3001 16072,2996 16070,2991 16067,2986 16064,2982 16061,2978 16057,2973 16054,2969 16050,2965 16046,2962 16042,2958 16038,2954 16033,2951 16029,2948 16024,2945 16019,2943 16014,2940 16009,2938 16004,2936 15999,2934 15994,2933 15989,2932 15983,2931 15978,2930 15972,2929 15967,2929 15962,2929 15956,2929 15951,2929 15945,2930 15940,2931 15934,2932 15929,2933 15924,2934 15919,2936 15914,2938 15909,2940 15904,2943 15899,2945 15894,2948 15890,2951 15885,2954 15881,2958 15877,2962 15873,2965 15869,2969 15866,2973 15862,2978 15859,2982 15856,2986 15853,2991 15851,2996 15848,3001 15846,3006 15844,3011 15842,3016 15841,3021 15839,3027 15838,3032 15838,3037 15837,3043 15837,3048 15837,3054 15837,3059 15837,3065 15838,3070 15838,3075 15839,3081 15841,3086 15842,3091 15844,3096 15846,3101 15848,3106 15851,3111 15853,3116 15856,3121 15859,3125 15862,3130 15866,3134 15869,3138 15873,3142 15877,3146 15881,3149 15885,3153 15890,3156 15894,3159 15899,3162 15904,3165 15909,3167 15914,3169 15919,3171 15924,3173 15929,3174 15934,3176 15940,3177 15945,3178 15951,3178 15956,3179 15962,3179 15967,3179 15972,3178 15978,3178 15983,3177 15989,3176 15994,3174 15999,3173 16004,3171 16009,3169 16014,3167 16019,3165 16024,3162 16029,3159 16033,3156 16038,3153 16042,3149 16046,3146 16050,3142 16054,3138 16057,3134 16061,3130 16064,3125 16067,3121 16070,3116 16072,3111 16075,3106 16077,3101 16079,3096 16081,3091 16082,3086 16084,3081 16085,3075 16085,3070 16086,3065 16086,3059 16087,3054 Z"/>
 <path fill="none" stroke="rgb(102,102,187)" stroke-linejoin="round" d="M 16087,3054 L 16086,3048 16086,3043 16085,3037 16085,3032 16084,3027 16082,3021 16081,3016 16079,3011 16077,3006 16075,3001 16072,2996 16070,2991 16067,2986 16064,2982 16061,2978 16057,2973 16054,2969 16050,2965 16046,2962 16042,2958 16038,2954 16033,2951 16029,2948 16024,2945 16019,2943 16014,2940 16009,2938 16004,2936 15999,2934 15994,2933 15989,2932 15983,2931 15978,2930 15972,2929 15967,2929 15962,2929 15956,2929 15951,2929 15945,2930 15940,2931 15934,2932 15929,2933 15924,2934 15919,2936 15914,2938 15909,2940 15904,2943 15899,2945 15894,2948 15890,2951 15885,2954 15881,2958 15877,2962 15873,2965 15869,2969 15866,2973 15862,2978 15859,2982 15856,2986 15853,2991 15851,2996 15848,3001 15846,3006 15844,3011 15842,3016 15841,3021 15839,3027 15838,3032 15838,3037 15837,3043 15837,3048 15837,3054 15837,3059 15837,3065 15838,3070 15838,3075 15839,3081 15841,3086 15842,3091 15844,3096 15846,3101 15848,3106 15851,3111 15853,3116 15856,3121 15859,3125 15862,3130 15866,3134 15869,3138 15873,3142 15877,3146 15881,3149 15885,3153 15890,3156 15894,3159 15899,3162 15904,3165 15909,3167 15914,3169 15919,3171 15924,3173 15929,3174 15934,3176 15940,3177 15945,3178 15951,3178 15956,3179 15962,3179 15967,3179 15972,3178 15978,3178 15983,3177 15989,3176 15994,3174 15999,3173 16004,3171 16009,3169 16014,3167 16019,3165 16024,3162 16029,3159 16033,3156 16038,3153 16042,3149 16046,3146 16050,3142 16054,3138 16057,3134 16061,3130 16064,3125 16067,3121 16070,3116 16072,3111 16075,3106 16077,3101 16079,3096 16081,3091 16082,3086 16084,3081 16085,3075 16085,3070 16086,3065 16086,3059 16087,3054 Z"/>
 <text class="TextShape"><tspan class="TextParagraph" font-family="Liberation Sans, sans-serif" font-size="706px" font-weight="400"><tspan class="TextPosition" x="974" y="6270"><tspan fill="rgb(0,0,0)" stroke="none">2015</tspan></tspan></tspan></text>
 <text class="TextShape"><tspan class="TextParagraph" font-family="Liberation Sans, sans-serif" font-size="706px" font-weight="400"><tspan class="TextPosition" x="4522" y="6270"><tspan fill="rgb(0,0,0)" stroke="none">2016</tspan></tspan></tspan></text>
 <text class="TextShape"><tspan class="TextParagraph" font-family="Liberation Sans, sans-serif" font-size="706px" font-weight="400"><tspan class="TextPosition" x="8071" y="6270"><tspan fill="rgb(0,0,0)" stroke="none">2017</tspan></tspan></tspan></text>
 <text class="TextShape"><tspan class="TextParagraph" font-family="Liberation Sans, sans-serif" font-size="706px" font-weight="400"><tspan class="TextPosition" x="11620" y="6270"><tspan fill="rgb(0,0,0)" stroke="none">2018</tspan></tspan></tspan></text>
 <text class="TextShape"><tspan class="TextParagraph" font-family="Liberation Sans, sans-serif" font-size="706px" font-weight="400"><tspan class="TextPosition" x="15169" y="6270"><tspan fill="rgb(0,0,0)" stroke="none">2019</tspan></tspan></tspan></text>
 <text class="TextShape"><tspan class="TextParagraph" font-family="Liberation Sans, sans-serif" font-size="706px" font-weight="400"><tspan class="TextPosition" x="513" y="5624"><tspan fill="rgb(0,0,0)" stroke="none">3.0</tspan></tspan></tspan></text>
 <text class="TextShape"><tspan class="TextParagraph" font-family="Liberation Sans, sans-serif" font-size="706px" font-weight="400"><tspan class="TextPosition" x="513" y="4409"><tspan fill="rgb(0,0,0)" stroke="none">3.5</tspan></tspan></tspan></text>
 <text class="TextShape"><tspan class="TextParagraph" font-family="Liberation Sans, sans-serif" font-size="706px" font-weight="400"><tspan class="TextPosition" x="513" y="3195"><tspan fill="rgb(0,0,0)" stroke="none">4.0</tspan></tspan></tspan></text>
 <text class="TextShape"><tspan class="TextParagraph" font-family="Liberation Sans, sans-serif" font-size="706px" font-weight="400"><tspan class="TextPosition" x="513" y="1980"><tspan fill="rgb(0,0,0)" stroke="none">4.5</tspan></tspan></tspan></text>
 <text class="TextShape"><tspan class="TextParagraph" font-family="Liberation Sans, sans-serif" font-size="706px" font-weight="400"><tspan class="TextPosition" x="513" y="766"><tspan fill="rgb(0,0,0)" stroke="none">5.0</tspan></tspan></tspan></text>
 <path fill="none" stroke="rgb(221,102,102)" stroke-width="80" stroke-linejoin="round" d="M 17502,2812 L 18302,2812"/>
 <path fill="rgb(221,102,102)" stroke="none" d="M 17690,2601 L 17690,3024 18113,3024 18113,2601 17690,2601 Z"/>
 <path fill="none" stroke="rgb(221,102,102)" stroke-linejoin="round" d="M 17690,2601 L 17690,3024 18113,3024 18113,2601 17690,2601 Z"/>
 <path fill="none" stroke="rgb(102,102,187)" stroke-width="80" stroke-linejoin="round" d="M 17502,3747 L 18302,3747"/>
 <path fill="rgb(102,102,187)" stroke="none" d="M 18113,3747 L 18113,3738 18112,3729 18111,3719 18110,3710 18108,3701 18106,3692 18103,3683 18100,3675 18097,3666 18093,3658 18089,3649 18085,3641 18080,3633 18075,3626 18069,3618 18064,3611 18057,3604 18051,3597 18044,3591 18037,3585 18030,3579 18023,3574 18015,3569 18007,3564 17999,3559 17991,3555 17982,3552 17974,3548 17965,3545 17956,3543 17947,3541 17938,3539 17929,3537 17920,3536 17911,3536 17902,3536 17892,3536 17883,3536 17874,3537 17865,3539 17856,3541 17847,3543 17838,3545 17829,3548 17821,3552 17812,3555 17804,3559 17796,3564 17788,3569 17780,3574 17773,3579 17766,3585 17759,3591 17752,3597 17746,3604 17739,3611 17734,3618 17728,3626 17723,3633 17718,3641 17714,3649 17710,3658 17706,3666 17703,3675 17700,3683 17697,3692 17695,3701 17693,3710 17692,3719 17691,3729 17690,3738 17690,3747 17690,3756 17691,3765 17692,3775 17693,3784 17695,3793 17697,3802 17700,3811 17703,3819 17706,3828 17710,3836 17714,3845 17718,3853 17723,3861 17728,3868 17734,3876 17739,3883 17746,3890 17752,3897 17759,3903 17766,3909 17773,3915 17780,3920 17788,3925 17796,3930 17804,3935 17812,3939 17821,3942 17829,3946 17838,3949 17847,3951 17856,3953 17865,3955 17874,3957 17883,3958 17892,3958 17902,3959 17911,3958 17920,3958 17929,3957 17938,3955 17947,3953 17956,3951 17965,3949 17974,3946 17982,3942 17991,3939 17999,3935 18007,3930 18015,3925 18023,3920 18030,3915 18037,3909 18044,3903 18051,3897 18057,3890 18064,3883 18069,3876 18075,3868 18080,3861 18085,3853 18089,3845 18093,3836 18097,3828 18100,3819 18103,3811 18106,3802 18108,3793 18110,3784 18111,3775 18112,3765 18113,3756 18113,3747 Z"/>
 <path fill="none" stroke="rgb(102,102,187)" stroke-linejoin="round" d="M 18113,3747 L 18113,3738 18112,3729 18111,3719 18110,3710 18108,3701 18106,3692 18103,3683 18100,3675 18097,3666 18093,3658 18089,3649 18085,3641 18080,3633 18075,3626 18069,3618 18064,3611 18057,3604 18051,3597 18044,3591 18037,3585 18030,3579 18023,3574 18015,3569 18007,3564 17999,3559 17991,3555 17982,3552 17974,3548 17965,3545 17956,3543 17947,3541 17938,3539 17929,3537 17920,3536 17911,3536 17902,3536 17892,3536 17883,3536 17874,3537 17865,3539 17856,3541 17847,3543 17838,3545 17829,3548 17821,3552 17812,3555 17804,3559 17796,3564 17788,3569 17780,3574 17773,3579 17766,3585 17759,3591 17752,3597 17746,3604 17739,3611 17734,3618 17728,3626 17723,3633 17718,3641 17714,3649 17710,3658 17706,3666 17703,3675 17700,3683 17697,3692 17695,3701 17693,3710 17692,3719 17691,3729 17690,3738 17690,3747 17690,3756 17691,3765 17692,3775 17693,3784 17695,3793 17697,3802 17700,3811 17703,3819 17706,3828 17710,3836 17714,3845 17718,3853 17723,3861 17728,3868 17734,3876 17739,3883 17746,3890 17752,3897 17759,3903 17766,3909 17773,3915 17780,3920 17788,3925 17796,3930 17804,3935 17812,3939 17821,3942 17829,3946 17838,3949 17847,3951 17856,3953 17865,3955 17874,3957 17883,3958 17892,3958 17902,3959 17911,3958 17920,3958 17929,3957 17938,3955 17947,3953 17956,3951 17965,3949 17974,3946 17982,3942 17991,3939 17999,3935 18007,3930 18015,3925 18023,3920 18030,3915 18037,3909 18044,3903 18051,3897 18057,3890 18064,3883 18069,3876 18075,3868 18080,3861 18085,3853 18089,3845 18093,3836 18097,3828 18100,3819 18103,3811 18106,3802 18108,3793 18110,3784 18111,3775 18112,3765 18113,3756 18113,3747 Z"/>
 <text class="TextShape"><tspan class="TextParagraph" font-family="Liberation Sans, sans-serif" font-size="706px" font-weight="400"><tspan class="TextPosition" x="18457" y="3050"><tspan fill="rgb(0,0,0)" stroke="none">overall teacher rating</tspan></tspan></tspan></text>
 <text class="TextShape"><tspan class="TextParagraph" font-family="Liberation Sans, sans-serif" font-size="706px" font-weight="400"><tspan class="TextPosition" x="18457" y="3985"><tspan fill="rgb(0,0,0)" stroke="none">faculty average</tspan></tspan></tspan></text>
</svg>