<?xml version="1.0" encoding="UTF-8"?>
<!DOCTYPE svg PUBLIC "-//W3C//DTD SVG 1.1//EN" "http://www.w3.org/Graphics/SVG/1.1/DTD/svg11.dtd">
<svg width="262mm" height="68mm" viewBox="0 0 26200 6800" version="1.1" xmlns="http://www.w3.org/2000/svg" xmlns:xlink="http://www.w3.org/1999/xlink" stroke-width="28.222" stroke-linejoin="round" xml:space="preserve">
 <path fill="rgb(255,255,255)" stroke="none" d="M 13085,6827 L 0,6827 0,0 26170,0 26170,6827 13085,6827 Z"/>
 <path fill="none" stroke="rgb(179,179,179)" stroke-linejoin="round" d="M 9126,5647 L 1779,5647 1779,534 16473,534 16473,5647 9126,5647 Z"/>
 <path fill="none" stroke="rgb(179,179,179)" stroke-linejoin="round" d="M 16473,5646 L 1779,5646"/>
 <path fill="none" stroke="rgb(179,179,179)" stroke-linejoin="round" d="M 16473,4367 L 1779,4367"/>
 <path fill="none" stroke="rgb(179,179,179)" stroke-linejoin="round" d="M 16473,3090 L 1779,3090"/>
 <path fill="none" stroke="rgb(179,179,179)" stroke-linejoin="round" d="M 16473,1811 L 1779,1811"/>
 <path fill="none" stroke="rgb(179,179,179)" stroke-linejoin="round" d="M 16473,533 L 1779,533"/>
 <path fill="none" stroke="rgb(179,179,179)" stroke-linejoin="round" d="M 1779,5796 L 1779,5646"/>
 <path fill="none" stroke="rgb(179,179,179)" stroke-linejoin="round" d="M 1779,5796 L 1779,5646"/>
 <path fill="none" stroke="rgb(179,179,179)" stroke-linejoin="round" d="M 5452,5796 L 5452,5646"/>
 <path fill="none" stroke="rgb(179,179,179)" stroke-linejoin="round" d="M 5452,5796 L 5452,5646"/>
 <path fill="none" stroke="rgb(179,179,179)" stroke-linejoin="round" d="M 9126,5796 L 9126,5646"/>
 <path fill="none" stroke="rgb(179,179,179)" stroke-linejoin="round" d="M 9126,5796 L 9126,5646"/>
 <path fill="none" stroke="rgb(179,179,179)" stroke-linejoin="round" d="M 12800,5796 L 12800,5646"/>
 <path fill="none" stroke="rgb(179,179,179)" stroke-linejoin="round" d="M 12800,5796 L 12800,5646"/>
 <path fill="none" stroke="rgb(179,179,179)" stroke-linejoin="round" d="M 16473,5796 L 16473,5646"/>
 <path fill="none" stroke="rgb(179,179,179)" stroke-linejoin="round" d="M 16473,5796 L 16473,5646"/>
 <path fill="none" stroke="rgb(179,179,179)" stroke-linejoin="round" d="M 1779,5646 L 16473,5646"/>
 <path fill="none" stroke="rgb(179,179,179)" stroke-linejoin="round" d="M 1629,5646 L 1779,5646"/>
 <path fill="none" stroke="rgb(179,179,179)" stroke-linejoin="round" d="M 1629,5646 L 1779,5646"/>
 <path fill="none" stroke="rgb(179,179,179)" stroke-linejoin="round" d="M 1629,4367 L 1779,4367"/>
 <path fill="none" stroke="rgb(179,179,179)" stroke-linejoin="round" d="M 1629,4367 L 1779,4367"/>
 <path fill="none" stroke="rgb(179,179,179)" stroke-linejoin="round" d="M 1629,3090 L 1779,3090"/>
 <path fill="none" stroke="rgb(179,179,179)" stroke-linejoin="round" d="M 1629,3090 L 1779,3090"/>
 <path fill="none" stroke="rgb(179,179,179)" stroke-linejoin="round" d="M 1629,1811 L 1779,1811"/>
 <path fill="none" stroke="rgb(179,179,179)" stroke-linejoin="round" d="M 1629,1811 L 1779,1811"/>
 <path fill="none" stroke="rgb(179,179,179)" stroke-linejoin="round" d="M 1629,533 L 1779,533"/>
 <path fill="none" stroke="rgb(179,179,179)" stroke-linejoin="round" d="M 1629,533 L 1779,533"/>
 <path fill="none" stroke="rgb(179,179,179)" stroke-linejoin="round" d="M 1779,5646 L 1779,533"/>
 <path fill="none" stroke="rgb(221,102,102)" stroke-width="80" stroke-linejoin="round" d="M 1779,2706 L 5452,2629 9126,1402 12800,1734 16473,1300"/>
 <path fill="rgb(221,102,102)" stroke="none" d="M 1654,2581 L 1654,2831 1904,2831 1904,2581 1654,2581 Z"/>
 <path fill="none" stroke="rgb(221,102,102)" stroke-linejoin="round" d="M 1654,2581 L 1654,2831 1904,2831 1904,2581 1654,2581 Z"/>
 <path fill="rgb(221,102,102)" stroke="none" d="M 5327,2504 L 5327,2754 5577,2754 5577,2504 5327,2504 Z"/>
 <path fill="none" stroke="rgb(221,102,102)" stroke-linejoin="round" d="M 5327,2504 L 5327,2754 5577,2754 5577,2504 5327,2504 Z"/>
 <path fill="rgb(221,102,102)" stroke="none" d="M 9001,1277 L 9001,1527 9251,1527 9251,1277 9001,1277 Z"/>
 <path fill="none" stroke="rgb(221,102,102)" stroke-linejoin="round" d="M 9001,1277 L 9001,1527 9251,1527 9251,1277 9001,1277 Z"/>
 <path fill="rgb(221,102,102)" stroke="none" d="M 12675,1609 L 12675,1859 12925,1859 12925,1609 12675,1609 Z"/>
 <path fill="none" stroke="rgb(221,102,102)" stroke-linejoin="round" d="M 12675,1609 L 12675,1859 12925,1859 12925,1609 12675,1609 Z"/>
 <path fill="rgb(221,102,102)" stroke="none" d="M 16348,1175 L 16348,1425 16598,1425 16598,1175 16348,1175 Z"/>
 <path fill="none" stroke="rgb(221,102,102)" stroke-linejoin="round" d="M 16348,1175 L 16348,1425 16598,1425 16598,1175 16348,1175 Z"/>
 <path fill="none" stroke="rgb(102,102,187)" stroke-width="80" stroke-linejoin="round" d="M 1779,2629 L 5452,3523 9126,3396 12800,3396 16473,3166"/>
 <path fill="rgb(102,102,187)" stroke="none" d="M 1904,2629 L 1903,2624 1903,2618 1902,2613 1902,2608 1901,2602 1899,2597 1898,2592 1896,2586 1894,2581 1892,2576 1889,2572 1887,2567 1884,2562 1881,2558 1878,2553 1874,2549 1871,2545 1867,2541 1863,2537 1859,2533 1855,2530 1850,2527 1846,2524 1841,2521 1836,2518 1831,2516 1826,2514 1821,2512 1816,2510 1811,2508 1806,2507 1800,2506 1795,2505 1789,2505 1784,2504 1779,2504 1773,2504 1768,2505 1762,2505 1757,2506 1751,2507 1746,2508 1741,2510 1736,2512 1731,2514 1726,2516 1721,2518 1716,2521 1711,2524 1707,2527 1702,2530 1698,2533 1694,2537 1690,2541 1686,2545 1683,2549 1679,2553 1676,2558 1673,2562 1670,2567 1668,2572 1665,2576 1663,2581 1661,2586 1659,2592 1658,2597 1656,2602 1655,2608 1655,2613 1654,2618 1654,2624 1654,2629 1654,2635 1654,2640 1655,2646 1655,2651 1656,2656 1658,2662 1659,2667 1661,2672 1663,2677 1665,2682 1668,2687 1670,2692 1673,2696 1676,2701 1679,2705 1683,2710 1686,2714 1690,2718 1694,2721 1698,2725 1702,2728 1707,2732 1711,2735 1716,2737 1721,2740 1726,2743 1731,2745 1736,2747 1741,2748 1746,2750 1751,2751 1757,2752 1762,2753 1768,2754 1773,2754 1779,2754 1784,2754 1789,2754 1795,2753 1800,2752 1806,2751 1811,2750 1816,2748 1821,2747 1826,2745 1831,2743 1836,2740 1841,2737 1846,2735 1850,2732 1855,2728 1859,2725 1863,2721 1867,2718 1871,2714 1874,2710 1878,2705 1881,2701 1884,2696 1887,2692 1889,2687 1892,2682 1894,2677 1896,2672 1898,2667 1899,2662 1901,2656 1902,2651 1902,2646 1903,2640 1903,2635 1904,2629 Z"/>
 <path fill="none" stroke="rgb(102,102,187)" stroke-linejoin="round" d="M 1904,2629 L 1903,2624 1903,2618 1902,2613 1902,2608 1901,2602 1899,2597 1898,2592 1896,2586 1894,2581 1892,2576 1889,2572 1887,2567 1884,2562 1881,2558 1878,2553 1874,2549 1871,2545 1867,2541 1863,2537 1859,2533 1855,2530 1850,2527 1846,2524 1841,2521 1836,2518 1831,2516 1826,2514 1821,2512 1816,2510 1811,2508 1806,2507 1800,2506 1795,2505 1789,2505 1784,2504 1779,2504 1773,2504 1768,2505 1762,2505 1757,2506 1751,2507 1746,2508 1741,2510 1736,2512 1731,2514 1726,2516 1721,2518 1716,2521 1711,2524 1707,2527 1702,2530 1698,2533 1694,2537 1690,2541 1686,2545 1683,2549 1679,2553 1676,2558 1673,2562 1670,2567 1668,2572 1665,2576 1663,2581 1661,2586 1659,2592 1658,2597 1656,2602 1655,2608 1655,2613 1654,2618 1654,2624 1654,2629 1654,2635 1654,2640 1655,2646 1655,2651 1656,2656 1658,2662 1659,2667 1661,2672 1663,2677 1665,2682 1668,2687 1670,2692 1673,2696 1676,2701 1679,2705 1683,2710 1686,2714 1690,2718 1694,2721 1698,2725 1702,2728 1707,2732 1711,2735 1716,2737 1721,2740 1726,2743 1731,2745 1736,2747 1741,2748 1746,2750 1751,2751 1757,2752 1762,2753 1768,2754 1773,2754 1779,2754 1784,2754 1789,2754 1795,2753 1800,2752 1806,2751 1811,2750 1816,2748 1821,2747 1826,2745 1831,2743 1836,2740 1841,2737 1846,2735 1850,2732 1855,2728 1859,2725 1863,2721 1867,2718 1871,2714 1874,2710 1878,2705 1881,2701 1884,2696 1887,2692 1889,2687 1892,2682 1894,2677 1896,2672 1898,2667 1899,2662 1901,2656 1902,2651 1902,2646 1903,2640 1903,2635 1904,2629 Z"/>
 <path fill="rgb(102,102,187)" stroke="none" d="M 5577,3523 L 5577,3518 5577,3512 5576,3507 5575,3501 5574,3496 5573,3491 5571,3486 5570,3480 5568,3475 5566,3470 5563,3465 5561,3461 5558,3456 5555,3451 5551,3447 5548,3443 5544,3439 5541,3435 5537,3431 5533,3427 5528,3424 5524,3421 5519,3418 5515,3415 5510,3413 5505,3411 5500,3409 5495,3407 5490,3405 5485,3403 5479,3402 5474,3401 5469,3400 5463,3400 5458,3399 5452,3399 5447,3399 5441,3400 5436,3400 5431,3401 5425,3402 5420,3403 5415,3405 5409,3407 5404,3409 5399,3411 5395,3413 5390,3415 5385,3418 5381,3421 5376,3424 5372,3427 5368,3431 5364,3435 5360,3439 5356,3443 5353,3447 5350,3451 5347,3456 5344,3461 5341,3465 5339,3470 5337,3475 5335,3480 5333,3486 5332,3491 5330,3496 5329,3501 5328,3507 5328,3512 5327,3518 5327,3523 5327,3529 5328,3534 5328,3540 5329,3545 5330,3550 5332,3556 5333,3561 5335,3566 5337,3571 5339,3576 5341,3581 5344,3586 5347,3590 5350,3595 5353,3599 5356,3604 5360,3608 5364,3612 5368,3615 5372,3619 5376,3622 5381,3626 5385,3629 5390,3631 5395,3634 5399,3636 5404,3639 5409,3641 5415,3642 5420,3644 5425,3645 5431,3646 5436,3647 5441,3648 5447,3648 5452,3648 5458,3648 5463,3648 5469,3647 5474,3646 5479,3645 5485,3644 5490,3642 5495,3641 5500,3639 5505,3636 5510,3634 5515,3631 5519,3629 5524,3626 5528,3622 5533,3619 5537,3615 5541,3612 5544,3608 5548,3604 5551,3599 5555,3595 5558,3590 5561,3586 5563,3581 5566,3576 5568,3571 5570,3566 5571,3561 5573,3556 5574,3550 5575,3545 5576,3540 5577,3534 5577,3529 5577,3523 Z"/>
 <path fill="none" stroke="rgb(102,102,187)" stroke-linejoin="round" d="M 5577,3523 L 5577,3518 5577,3512 5576,3507 5575,3501 5574,3496 5573,3491 5571,3486 5570,3480 5568,3475 5566,3470 5563,3465 5561,3461 5558,3456 5555,3451 5551,3447 5548,3443 5544,3439 5541,3435 5537,3431 5533,3427 5528,3424 5524,3421 5519,3418 5515,3415 5510,3413 5505,3411 5500,3409 5495,3407 5490,3405 5485,3403 5479,3402 5474,3401 5469,3400 5463,3400 5458,3399 5452,3399 5447,3399 5441,3400 5436,3400 5431,3401 5425,3402 5420,3403 5415,3405 5409,3407 5404,3409 5399,3411 5395,3413 5390,3415 5385,3418 5381,3421 5376,3424 5372,3427 5368,3431 5364,3435 5360,3439 5356,3443 5353,3447 5350,3451 5347,3456 5344,3461 5341,3465 5339,3470 5337,3475 5335,3480 5333,3486 5332,3491 5330,3496 5329,3501 5328,3507 5328,3512 5327,3518 5327,3523 5327,3529 5328,3534 5328,3540 5329,3545 5330,3550 5332,3556 5333,3561 5335,3566 5337,3571 5339,3576 5341,3581 5344,3586 5347,3590 5350,3595 5353,3599 5356,3604 5360,3608 5364,3612 5368,3615 5372,3619 5376,3622 5381,3626 5385,3629 5390,3631 5395,3634 5399,3636 5404,3639 5409,3641 5415,3642 5420,3644 5425,3645 5431,3646 5436,3647 5441,3648 5447,3648 5452,3648 5458,3648 5463,3648 5469,3647 5474,3646 5479,3645 5485,3644 5490,3642 5495,3641 5500,3639 5505,3636 5510,3634 5515,3631 5519,3629 5524,3626 5528,3622 5533,3619 5537,3615 5541,3612 5544,3608 5548,3604 5551,3599 5555,3595 5558,3590 5561,3586 5563,3581 5566,3576 5568,3571 5570,3566 5571,3561 5573,3556 5574,3550 5575,3545 5576,3540 5577,3534 5577,3529 5577,3523 Z"/>
 <path fill="rgb(102,102,187)" stroke="none" d="M 9251,3396 L 9251,3391 9251,3385 9250,3380 9249,3375 9248,3369 9247,3364 9245,3359 9243,3354 9241,3349 9239,3344 9237,3339 9234,3334 9231,3329 9228,3325 9225,3320 9222,3316 9218,3312 9214,3308 9210,3304 9206,3301 9202,3297 9198,3294 9193,3291 9189,3288 9184,3285 9179,3283 9174,3281 9169,3279 9164,3277 9158,3276 9153,3274 9148,3273 9142,3272 9137,3272 9131,3271 9126,3271 9121,3271 9115,3272 9110,3272 9104,3273 9099,3274 9094,3276 9088,3277 9083,3279 9078,3281 9073,3283 9068,3285 9064,3288 9059,3291 9054,3294 9050,3297 9046,3301 9042,3304 9038,3308 9034,3312 9030,3316 9027,3320 9024,3325 9021,3329 9018,3334 9015,3339 9013,3344 9011,3349 9009,3354 9007,3359 9005,3364 9004,3369 9003,3375 9002,3380 9001,3385 9001,3391 9001,3396 9001,3402 9001,3407 9002,3413 9003,3417 9004,3422 9005,3428 9007,3433 9009,3438 9011,3443 9013,3448 9015,3453 9018,3458 9021,3463 9024,3467 9027,3471 9030,3476 9034,3480 9038,3484 9042,3487 9046,3491 9050,3495 9054,3498 9059,3501 9064,3504 9068,3506 9073,3509 9078,3511 9083,3513 9088,3515 9094,3516 9099,3517 9104,3518 9110,3519 9115,3520 9121,3520 9126,3520 9131,3520 9137,3520 9142,3519 9148,3518 9153,3517 9158,3516 9164,3515 9169,3513 9174,3511 9179,3509 9184,3506 9189,3504 9193,3501 9198,3498 9202,3495 9206,3491 9210,3487 9214,3484 9218,3480 9222,3476 9225,3471 9228,3467 9231,3463 9234,3458 9237,3453 9239,3448 9241,3443 9243,3438 9245,3433 9247,3428 9248,3422 9249,3417 9250,3413 9251,3407 9251,3402 9251,3396 Z"/>
 <path fill="none" stroke="rgb(102,102,187)" stroke-linejoin="round" d="M 9251,3396 L 9251,3391 9251,3385 9250,3380 9249,3375 9248,3369 9247,3364 9245,3359 9243,3354 9241,3349 9239,3344 9237,3339 9234,3334 9231,3329 9228,3325 9225,3320 9222,3316 9218,3312 9214,3308 9210,3304 9206,3301 9202,3297 9198,3294 9193,3291 9189,3288 9184,3285 9179,3283 9174,3281 9169,3279 9164,3277 9158,3276 9153,3274 9148,3273 9142,3272 9137,3272 9131,3271 9126,3271 9121,3271 9115,3272 9110,3272 9104,3273 9099,3274 9094,3276 9088,3277 9083,3279 9078,3281 9073,3283 9068,3285 9064,3288 9059,3291 9054,3294 9050,3297 9046,3301 9042,3304 9038,3308 9034,3312 9030,3316 9027,3320 9024,3325 9021,3329 9018,3334 9015,3339 9013,3344 9011,3349 9009,3354 9007,3359 9005,3364 9004,3369 9003,3375 9002,3380 9001,3385 9001,3391 9001,3396 9001,3402 9001,3407 9002,3413 9003,3417 9004,3422 9005,3428 9007,3433 9009,3438 9011,3443 9013,3448 9015,3453 9018,3458 9021,3463 9024,3467 9027,3471 9030,3476 9034,3480 9038,3484 9042,3487 9046,3491 9050,3495 9054,3498 9059,3501 9064,3504 9068,3506 9073,3509 9078,3511 9083,3513 9088,3515 9094,3516 9099,3517 9104,3518 9110,3519 9115,3520 9121,3520 9126,3520 9131,3520 9137,3520 9142,3519 9148,3518 9153,3517 9158,3516 9164,3515 9169,3513 9174,3511 9179,3509 9184,3506 9189,3504 9193,3501 9198,3498 9202,3495 9206,3491 9210,3487 9214,3484 9218,3480 9222,3476 9225,3471 9228,3467 9231,3463 9234,3458 9237,3453 9239,3448 9241,3443 9243,3438 9245,3433 9247,3428 9248,3422 9249,3417 9250,3413 9251,3407 9251,3402 9251,3396 Z"/>
 <path fill="rgb(102,102,187)" stroke="none" d="M 12925,3396 L 12925,3391 12924,3385 12924,3380 12923,3375 12922,3369 12920,3364 12919,3359 12917,3354 12915,3349 12913,3344 12911,3339 12908,3334 12905,3329 12902,3325 12899,3320 12896,3316 12892,3312 12888,3308 12884,3304 12880,3301 12876,3297 12871,3294 12867,3291 12862,3288 12857,3285 12853,3283 12848,3281 12843,3279 12837,3277 12832,3276 12827,3274 12821,3273 12816,3272 12811,3272 12805,3271 12800,3271 12794,3271 12789,3272 12783,3272 12778,3273 12773,3274 12767,3276 12762,3277 12757,3279 12752,3281 12747,3283 12742,3285 12737,3288 12733,3291 12728,3294 12724,3297 12719,3301 12715,3304 12711,3308 12708,3312 12704,3316 12701,3320 12697,3325 12694,3329 12691,3334 12689,3339 12686,3344 12684,3349 12682,3354 12681,3359 12679,3364 12678,3369 12677,3375 12676,3380 12675,3385 12675,3391 12675,3396 12675,3402 12675,3407 12676,3413 12677,3417 12678,3422 12679,3428 12681,3433 12682,3438 12684,3443 12686,3448 12689,3453 12691,3458 12694,3463 12697,3467 12701,3471 12704,3476 12708,3480 12711,3484 12715,3487 12719,3491 12724,3495 12728,3498 12733,3501 12737,3504 12742,3506 12747,3509 12752,3511 12757,3513 12762,3515 12767,3516 12773,3517 12778,3518 12783,3519 12789,3520 12794,3520 12800,3520 12805,3520 12811,3520 12816,3519 12821,3518 12827,3517 12832,3516 12837,3515 12843,3513 12848,3511 12853,3509 12857,3506 12862,3504 12867,3501 12871,3498 12876,3495 12880,3491 12884,3487 12888,3484 12892,3480 12896,3476 12899,3471 12902,3467 12905,3463 12908,3458 12911,3453 12913,3448 12915,3443 12917,3438 12919,3433 12920,3428 12922,3422 12923,3417 12924,3413 12924,3407 12925,3402 12925,3396 Z"/>
 <path fill="none" stroke="rgb(102,102,187)" stroke-linejoin="round" d="M 12925,3396 L 12925,3391 12924,3385 12924,3380 12923,3375 12922,3369 12920,3364 12919,3359 12917,3354 12915,3349 12913,3344 12911,3339 12908,3334 12905,3329 12902,3325 12899,3320 12896,3316 12892,3312 12888,3308 12884,3304 12880,3301 12876,3297 12871,3294 12867,3291 12862,3288 12857,3285 12853,3283 12848,3281 12843,3279 12837,3277 12832,3276 12827,3274 12821,3273 12816,3272 12811,3272 12805,3271 12800,3271 12794,3271 12789,3272 12783,3272 12778,3273 12773,3274 12767,3276 12762,3277 12757,3279 12752,3281 12747,3283 12742,3285 12737,3288 12733,3291 12728,3294 12724,3297 12719,3301 12715,3304 12711,3308 12708,3312 12704,3316 12701,3320 12697,3325 12694,3329 12691,3334 12689,3339 12686,3344 12684,3349 12682,3354 12681,3359 12679,3364 12678,3369 12677,3375 12676,3380 12675,3385 12675,3391 12675,3396 12675,3402 12675,3407 12676,3413 12677,3417 12678,3422 12679,3428 12681,3433 12682,3438 12684,3443 12686,3448 12689,3453 12691,3458 12694,3463 12697,3467 12701,3471 12704,3476 12708,3480 12711,3484 12715,3487 12719,3491 12724,3495 12728,3498 12733,3501 12737,3504 12742,3506 12747,3509 12752,3511 12757,3513 12762,3515 12767,3516 12773,3517 12778,3518 12783,3519 12789,3520 12794,3520 12800,3520 12805,3520 12811,3520 12816,3519 12821,3518 12827,3517 12832,3516 12837,3515 12843,3513 12848,3511 12853,3509 12857,3506 12862,3504 12867,3501 12871,3498 12876,3495 12880,3491 12884,3487 12888,3484 12892,3480 12896,3476 12899,3471 12902,3467 12905,3463 12908,3458 12911,3453 12913,3448 12915,3443 12917,3438 12919,3433 12920,3428 12922,3422 12923,3417 12924,3413 12924,3407 12925,3402 12925,3396 Z"/>
 <path fill="rgb(102,102,187)" stroke="none" d="M 16598,3166 L 16597,3161 16597,3155 16596,3150 16596,3145 16595,3139 16593,3134 16592,3129 16590,3123 16588,3118 16586,3113 16583,3108 16581,3104 16578,3099 16575,3095 16572,3090 16568,3086 16565,3082 16561,3078 16557,3074 16553,3070 16549,3067 16544,3064 16540,3061 16535,3058 16530,3055 16525,3053 16520,3051 16515,3049 16510,3047 16505,3045 16500,3044 16494,3043 16489,3042 16483,3042 16478,3041 16473,3041 16467,3041 16462,3042 16456,3042 16451,3043 16445,3044 16440,3045 16435,3047 16430,3049 16425,3051 16420,3053 16415,3055 16410,3058 16405,3061 16401,3064 16396,3067 16392,3070 16388,3074 16384,3078 16380,3082 16377,3086 16373,3090 16370,3095 16367,3099 16364,3104 16362,3108 16359,3113 16357,3118 16355,3123 16353,3129 16352,3134 16350,3139 16349,3145 16349,3150 16348,3155 16348,3161 16348,3166 16348,3172 16348,3177 16349,3183 16349,3188 16350,3193 16352,3199 16353,3204 16355,3209 16357,3214 16359,3219 16362,3224 16364,3229 16367,3233 16370,3238 16373,3242 16377,3247 16380,3251 16384,3255 16388,3258 16392,3262 16396,3265 16401,3269 16405,3272 16410,3274 16415,3277 16420,3279 16425,3282 16430,3284 16435,3285 16440,3287 16445,3288 16451,3289 16456,3290 16462,3291 16467,3291 16473,3291 16478,3291 16483,3291 16489,3290 16494,3289 16500,3288 16505,3287 16510,3285 16515,3284 16520,3282 16525,3279 16530,3277 16535,3274 16540,3272 16544,3269 16549,3265 16553,3262 16557,3258 16561,3255 16565,3251 16568,3247 16572,3242 16575,3238 16578,3233 16581,3229 16583,3224 16586,3219 16588,3214 16590,3209 16592,3204 16593,3199 16595,3193 16596,3188 16596,3183 16597,3177 16597,3172 16598,3166 Z"/>
 <path fill="none" stroke="rgb(102,102,187)" stroke-linejoin="round" d="M 16598,3166 L 16597,3161 16597,3155 16596,3150 16596,3145 16595,3139 16593,3134 16592,3129 16590,3123 16588,3118 16586,3113 16583,3108 16581,3104 16578,3099 16575,3095 16572,3090 16568,3086 16565,3082 16561,3078 16557,3074 16553,3070 16549,3067 16544,3064 16540,3061 16535,3058 16530,3055 16525,3053 16520,3051 16515,3049 16510,3047 16505,3045 16500,3044 16494,3043 16489,3042 16483,3042 16478,3041 16473,3041 16467,3041 16462,3042 16456,3042 16451,3043 16445,3044 16440,3045 16435,3047 16430,3049 16425,3051 16420,3053 16415,3055 16410,3058 16405,3061 16401,3064 16396,3067 16392,3070 16388,3074 16384,3078 16380,3082 16377,3086 16373,3090 16370,3095 16367,3099 16364,3104 16362,3108 16359,3113 16357,3118 16355,3123 16353,3129 16352,3134 16350,3139 16349,3145 16349,3150 16348,3155 16348,3161 16348,3166 16348,3172 16348,3177 16349,3183 16349,3188 16350,3193 16352,3199 16353,3204 16355,3209 16357,3214 16359,3219 16362,3224 16364,3229 16367,3233 16370,3238 16373,3242 16377,3247 16380,3251 16384,3255 16388,3258 16392,3262 16396,3265 16401,3269 16405,3272 16410,3274 16415,3277 16420,3279 16425,3282 16430,3284 16435,3285 16440,3287 16445,3288 16451,3289 16456,3290 16462,3291 16467,3291 16473,3291 16478,3291 16483,3291 16489,3290 16494,3289 16500,3288 16505,3287 16510,3285 16515,3284 16520,3282 16525,3279 16530,3277 16535,3274 16540,3272 16544,3269 16549,3265 16553,3262 16557,3258 16561,3255 16565,3251 16568,3247 16572,3242 16575,3238 16578,3233 16581,3229 16583,3224 16586,3219 16588,3214 16590,3209 16592,3204 16593,3199 16595,3193 16596,3188 16596,3183 16597,3177 16597,3172 16598,3166 Z"/>
 <text class="TextShape"><tspan class="TextParagraph" font-family="Liberation Sans, sans-serif" font-size="706px" font-weight="400"><tspan class="TextPosition" x="985" y="6531"><tspan fill="rgb(0,0,0)" stroke="none">2015</tspan></tspan></tspan></text>
 <text class="TextShape"><tspan class="TextParagraph" font-family="Liberation Sans, sans-serif" font-size="706px" font-weight="400"><tspan class="TextPosition" x="4658" y="6531"><tspan fill="rgb(0,0,0)" stroke="none">2016</tspan></tspan></tspan></text>
 <text class="TextShape"><tspan class="TextParagraph" font-family="Liberation Sans, sans-serif" font-size="706px" font-weight="400"><tspan class="TextPosition" x="8332" y="6531"><tspan fill="rgb(0,0,0)" stroke="none">2017</tspan></tspan></tspan></text>
 <text class="TextShape"><tspan class="TextParagraph" font-family="Liberation Sans, sans-serif" font-size="706px" font-weight="400"><tspan class="TextPosition" x="12006" y="6531"><tspan fill="rgb(0,0,0)" stroke="none">2018</tspan></tspan></tspan></text>
 <text class="TextShape"><tspan class="TextParagraph" font-family="Liberation Sans, sans-serif" font-size="706px" font-weight="400"><tspan class="TextPosition" x="15680" y="6531"><tspan fill="rgb(0,0,0)" stroke="none">2019</tspan></tspan></tspan></text>
 <text class="TextShape"><tspan class="TextParagraph" font-family="Liberation Sans, sans-serif" font-size="706px" font-weight="400"><tspan class="TextPosition" x="524" y="5885"><tspan fill="rgb(0,0,0)" stroke="none">3.0</tspan></tspan></tspan></text>
 <text class="TextShape"><tspan class="TextParagraph" font-family="Liberation Sans, sans-serif" font-size="706px" font-weight="400"><tspan class="TextPosition" x="524" y="4606"><tspan fill="rgb(0,0,0)" stroke="none">3.5</tspan></tspan></tspan></text>
 <text class="TextShape"><tspan class="TextParagraph" font-family="Liberation Sans, sans-serif" font-size="706px" font-weight="400"><tspan class="TextPosition" x="524" y="3328"><tspan fill="rgb(0,0,0)" stroke="none">4.0</tspan></tspan></tspan></text>
 <text class="TextShape"><tspan class="TextParagraph" font-family="Liberation Sans, sans-serif" font-size="706px" font-weight="400"><tspan class="TextPosition" x="524" y="2049"><tspan fill="rgb(0,0,0)" stroke="none">4.5</tspan></tspan></tspan></text>
 <text class="TextShape"><tspan class="TextParagraph" font-family="Liberation Sans, sans-serif" font-size="706px" font-weight="400"><tspan class="TextPosition" x="524" y="771"><tspan fill="rgb(0,0,0)" stroke="none">5.0</tspan></tspan></tspan></text>
 <path fill="none" stroke="rgb(221,102,102)" stroke-width="80" stroke-linejoin="round" d="M 18024,2945 L 18824,2945"/>
 <path fill="rgb(221,102,102)" stroke="none" d="M 18212,2734 L 18212,3157 18635,3157 18635,2734 18212,2734 Z"/>
 <path fill="none" stroke="rgb(221,102,102)" stroke-linejoin="round" d="M 18212,2734 L 18212,3157 18635,3157 18635,2734 18212,2734 Z"/>
 <path fill="none" stroke="rgb(102,102,187)" stroke-width="80" stroke-linejoin="round" d="M 18024,3880 L 18824,3880"/>
 <path fill="rgb(102,102,187)" stroke="none" d="M 18635,3880 L 18635,3871 18634,3862 18633,3852 18632,3843 18630,3834 18628,3825 18625,3816 18622,3808 18619,3799 18615,3791 18611,3782 18607,3774 18602,3766 18597,3759 18591,3751 18586,3744 18579,3737 18573,3730 18566,3724 18559,3718 18552,3712 18545,3707 18537,3702 18529,3697 18521,3692 18513,3688 18504,3685 18496,3681 18487,3678 18478,3676 18469,3674 18460,3672 18451,3670 18442,3669 18433,3669 18424,3669 18414,3669 18405,3669 18396,3670 18387,3672 18378,3674 18369,3676 18360,3678 18351,3681 18343,3685 18334,3688 18326,3692 18318,3697 18310,3702 18302,3707 18295,3712 18288,3718 18281,3724 18274,3730 18268,3737 18261,3744 18256,3751 18250,3759 18245,3766 18240,3774 18236,3782 18232,3791 18228,3799 18225,3808 18222,3816 18219,3825 18217,3834 18215,3843 18214,3852 18213,3862 18212,3871 18212,3880 18212,3889 18213,3898 18214,3908 18215,3917 18217,3926 18219,3935 18222,3944 18225,3952 18228,3961 18232,3969 18236,3978 18240,3986 18245,3994 18250,4001 18256,4009 18261,4016 18268,4023 18274,4030 18281,4036 18288,4042 18295,4048 18302,4053 18310,4058 18318,4063 18326,4068 18334,4072 18343,4075 18351,4079 18360,4082 18369,4084 18378,4086 18387,4088 18396,4090 18405,4091 18414,4091 18424,4092 18433,4091 18442,4091 18451,4090 18460,4088 18469,4086 18478,4084 18487,4082 18496,4079 18504,4075 18513,4072 18521,4068 18529,4063 18537,4058 18545,4053 18552,4048 18559,4042 18566,4036 18573,4030 18579,4023 18586,4016 18591,4009 18597,4001 18602,3994 18607,3986 18611,3978 18615,3969 18619,3961 18622,3952 18625,3944 18628,3935 18630,3926 18632,3917 18633,3908 18634,3898 18635,3889 18635,3880 Z"/>
 <path fill="none" stroke="rgb(102,102,187)" stroke-linejoin="round" d="M 18635,3880 L 18635,3871 18634,3862 18633,3852 18632,3843 18630,3834 18628,3825 18625,3816 18622,3808 18619,3799 18615,3791 18611,3782 18607,3774 18602,3766 18597,3759 18591,3751 18586,3744 18579,3737 18573,3730 18566,3724 18559,3718 18552,3712 18545,3707 18537,3702 18529,3697 18521,3692 18513,3688 18504,3685 18496,3681 18487,3678 18478,3676 18469,3674 18460,3672 18451,3670 18442,3669 18433,3669 18424,3669 18414,3669 18405,3669 18396,3670 18387,3672 18378,3674 18369,3676 18360,3678 18351,3681 18343,3685 18334,3688 18326,3692 18318,3697 18310,3702 18302,3707 18295,3712 18288,3718 18281,3724 18274,3730 18268,3737 18261,3744 18256,3751 18250,3759 18245,3766 18240,3774 18236,3782 18232,3791 18228,3799 18225,3808 18222,3816 18219,3825 18217,3834 18215,3843 18214,3852 18213,3862 18212,3871 18212,3880 18212,3889 18213,3898 18214,3908 18215,3917 18217,3926 18219,3935 18222,3944 18225,3952 18228,3961 18232,3969 18236,3978 18240,3986 18245,3994 18250,4001 18256,4009 18261,4016 18268,4023 18274,4030 18281,4036 18288,4042 18295,4048 18302,4053 18310,4058 18318,4063 18326,4068 18334,4072 18343,4075 18351,4079 18360,4082 18369,4084 18378,4086 18387,4088 18396,4090 18405,4091 18414,4091 18424,4092 18433,4091 18442,4091 18451,4090 18460,4088 18469,4086 18478,4084 18487,4082 18496,4079 18504,4075 18513,4072 18521,4068 18529,4063 18537,4058 18545,4053 18552,4048 18559,4042 18566,4036 18573,4030 18579,4023 18586,4016 18591,4009 18597,4001 18602,3994 18607,3986 18611,3978 18615,3969 18619,3961 18622,3952 18625,3944 18628,3935 18630,3926 18632,3917 18633,3908 18634,3898 18635,3889 18635,3880 Z"/>
 <text class="TextShape"><tspan class="TextParagraph" font-family="Liberation Sans, sans-serif" font-size="706px" font-weight="400"><tspan class="TextPosition" x="18979" y="3183"><tspan fill="rgb(0,0,0)" stroke="none">overall teacher rating</tspan></tspan></tspan></text>
 <text class="TextShape"><tspan class="TextParagraph" font-family="Liberation Sans, sans-serif" font-size="706px" font-weight="400"><tspan class="TextPosition" x="18979" y="4118"><tspan fill="rgb(0,0,0)" stroke="none">faculty average</tspan></tspan></tspan></text>
</svg>